<?xml version="1.0" encoding="UTF-8"?>
<svg version="1.1" xmlns="http://www.w3.org/2000/svg" width="60" height="62">
<path d="M0 0 C4.67158362 4.01973475 7.66503357 8.55743966 8.75 14.6875 C9.09981611 20.82518263 7.08589843 26.4936416 3.10546875 31.171875 C-1.62665838 35.48740403 -7.81377894 38.97046205 -14.3125 39.3125 C-16.625 38.1875 -16.625 38.1875 -19.3125 36.3125 C-19.95703125 35.95929687 -20.6015625 35.60609375 -21.265625 35.2421875 C-27.50252099 31.75414567 -30.03173078 28.15480767 -32.3125 21.3125 C-32.99175611 13.72311918 -32.07552826 8.85262996 -27.3125 2.75 C-17.52632062 -5.20127074 -10.92107221 -5.56356509 0 0 Z " fill="#66ACAB" transform="translate(42.3125,11.6875)"/>
<path d="M0 0 C0.33 1.32 0.66 2.64 1 4 C6.445 3.505 6.445 3.505 12 3 C12 4.32 12 5.64 12 7 C12.99 7 13.98 7 15 7 C15.33 6.34 15.66 5.68 16 5 C16 5.66 16 6.32 16 7 C16.66 7 17.32 7 18 7 C18.33 9.31 18.66 11.62 19 14 C19.17835515 9.45194365 18.99785435 6.1205746 17 2 C19 3.3125 19 3.3125 21 6 C21.83941241 11.17368609 21.98982424 16.21344159 19 20.6875 C18.34 21.450625 17.68 22.21375 17 23 C17 21.33333333 17 19.66666667 17 18 C16.38125 18.639375 15.7625 19.27875 15.125 19.9375 C11.62954122 23.33015116 9.02673088 23.3344974 4.32421875 23.2890625 C0.78520095 22.84891575 -1.33025605 21.27904971 -4 19 C-6.13586678 15.79619983 -6.23132175 14.98060033 -6.125 11.3125 C-6.10695313 10.50425781 -6.08890625 9.69601563 -6.0703125 8.86328125 C-6.04710938 8.24839844 -6.02390625 7.63351563 -6 7 C-5.01 7 -4.02 7 -3 7 C-2.87625 6.401875 -2.7525 5.80375 -2.625 5.1875 C-2 3 -2 3 0 0 Z " fill="#487558" transform="translate(24,15)"/>
<path d="M0 0 C1.45792884 -0.05399736 2.91642712 -0.09279177 4.375 -0.125 C5.18710937 -0.14820313 5.99921875 -0.17140625 6.8359375 -0.1953125 C9 0 9 0 11 2 C10.34 2 9.68 2 9 2 C9 2.66 9 3.32 9 4 C8.34 4 7.68 4 7 4 C7.33 4.99 7.66 5.98 8 7 C5.47524538 8.26237731 3.68799534 8.09856404 0.875 8.0625 C-0.03507812 8.05347656 -0.94515625 8.04445313 -1.8828125 8.03515625 C-2.58148437 8.02355469 -3.28015625 8.01195312 -4 8 C-4.33 7.34 -4.66 6.68 -5 6 C-5.45375 6.825 -5.9075 7.65 -6.375 8.5 C-6.91125 9.325 -7.4475 10.15 -8 11 C-8.66 11 -9.32 11 -10 11 C-9.34 9.35 -8.68 7.7 -8 6 C-8.33 6 -8.66 6 -9 6 C-11.98195739 9.69762716 -12.61970364 12.96948138 -12.50390625 17.5859375 C-11.71311559 21.37437647 -9.65216626 24.03261858 -7.3125 27.0546875 C-6 29 -6 29 -6 32 C-4.68 32.66 -3.36 33.32 -2 34 C-2.33 34.99 -2.66 35.98 -3 37 C-7.55877267 36.4636738 -10.44037226 34.8779969 -14 32 C-18.60094033 25.60818733 -19.66098752 19.69149119 -19 12 C-17.32934972 7.339765 -14.94099245 4.02448258 -11 1 C-7.80808512 1.06514112 -5.77551627 1.5637721 -3 3.125 C-0.12765176 4.38165235 2.01239233 3.67900174 5 3 C2.525 2.505 2.525 2.505 0 2 C0 1.34 0 0.68 0 0 Z " fill="#72ABA8" transform="translate(29,11)"/>
<path d="M0 0 C0.33 1.32 0.66 2.64 1 4 C6.445 3.505 6.445 3.505 12 3 C12 4.32 12 5.64 12 7 C12.99 7 13.98 7 15 7 C15.33 6.34 15.66 5.68 16 5 C16.33 6.65 16.66 8.3 17 10 C16.030625 9.814375 15.06125 9.62875 14.0625 9.4375 C13.051875 9.293125 12.04125 9.14875 11 9 C10.67 9.33 10.34 9.66 10 10 C10 11.32 10 12.64 10 14 C8.68 14 7.36 14 6 14 C3.66365343 14.31151288 1.32961443 14.64159778 -1 15 C-1 13.35 -1 11.7 -1 10 C-0.01 10.33 0.98 10.66 2 11 C1.67 10.34 1.34 9.68 1 9 C-0.98 9.33 -2.96 9.66 -5 10 C-5 9.01 -5 8.02 -5 7 C-4.34 7 -3.68 7 -3 7 C-2.87625 6.401875 -2.7525 5.80375 -2.625 5.1875 C-2 3 -2 3 0 0 Z " fill="#7C8069" transform="translate(24,15)"/>
<path d="M0 0 C0 3 0 3 -1.5 5.125 C-3.58084099 9.11327857 -3.85849365 12.5871822 -3 17 C-0.64122324 20.1001066 1.39149879 21.67546602 4.8125 23.5 C5.534375 23.995 6.25625 24.49 7 25 C7.3125 27.6875 7.3125 27.6875 7 30 C7.66 30.33 8.32 30.66 9 31 C8.79375 31.61875 8.5875 32.2375 8.375 32.875 C8.25125 33.57625 8.1275 34.2775 8 35 C8.66 35.66 9.32 36.32 10 37 C8.35 36.67 6.7 36.34 5 36 C4.71125 35.030625 4.4225 34.06125 4.125 33.0625 C3.35785318 29.89335797 3.35785318 29.89335797 1 29 C-0.02002943 27.28898288 -1.03331592 25.5727226 -1.98046875 23.8203125 C-3.03399354 21.85096024 -3.03399354 21.85096024 -4.75 19.625 C-6.59662529 15.74708688 -6.69055178 12.21756356 -6 8 C-4.26016146 4.81029602 -2.55304507 2.55304507 0 0 Z " fill="#61D3E4" transform="translate(22,14)"/>
<path d="M0 0 C7.85619469 2.96460177 7.85619469 2.96460177 10 7 C10 7.99 10 8.98 10 10 C11.32 10.66 12.64 11.32 14 12 C13.67 12.99 13.34 13.98 13 15 C7.62829883 14.36803516 3.85586149 11.91772354 0.125 8.0625 C-1.25798307 5.52703104 -1.30784315 3.8475491 -1 1 C-0.67 0.67 -0.34 0.34 0 0 Z " fill="#71ACA9" transform="translate(13,33)"/>
<path d="M0 0 C1 3 1 3 -0.0625 5.75 C-2.33566439 9.56304994 -5.01335133 12.73305097 -8 16 C-8.66 15.67 -9.32 15.34 -10 15 C-10 14.34 -10 13.68 -10 13 C-10.99 12.67 -11.98 12.34 -13 12 C-13 10.02 -13 8.04 -13 6 C-12.39671875 5.90203125 -11.7934375 5.8040625 -11.171875 5.703125 C-6.29421718 4.79053096 -3.16176612 4.12404277 0 0 Z " fill="#3C92A8" transform="translate(41,32)"/>
<path d="M0 0 C1.45792884 -0.05399736 2.91642712 -0.09279177 4.375 -0.125 C5.18710937 -0.14820313 5.99921875 -0.17140625 6.8359375 -0.1953125 C9 0 9 0 11 2 C10.34 2 9.68 2 9 2 C9 2.66 9 3.32 9 4 C8.34 4 7.68 4 7 4 C7.33 4.99 7.66 5.98 8 7 C5.47524538 8.26237731 3.68799534 8.09856404 0.875 8.0625 C-0.03507812 8.05347656 -0.94515625 8.04445313 -1.8828125 8.03515625 C-2.58148438 8.02355469 -3.28015625 8.01195312 -4 8 C-4.33 7.34 -4.66 6.68 -5 6 C-5.45375 6.825 -5.9075 7.65 -6.375 8.5 C-6.91125 9.325 -7.4475 10.15 -8 11 C-8.66 11 -9.32 11 -10 11 C-9.67 10.21625 -9.34 9.4325 -9 8.625 C-7.88133489 6.15667503 -7.88133489 6.15667503 -8 4 C-7.67 3.01 -7.34 2.02 -7 1 C-5.700625 1.7734375 -5.700625 1.7734375 -4.375 2.5625 C-0.60596507 4.16782969 1.10885099 4.01911045 5 3 C3.35 2.67 1.7 2.34 0 2 C0 1.34 0 0.68 0 0 Z " fill="#5C7376" transform="translate(29,11)"/>
<path d="M0 0 C-0.33 0.66 -0.66 1.32 -1 2 C-1.70125 1.855625 -2.4025 1.71125 -3.125 1.5625 C-6.07556141 0.98521625 -9.03270151 0.48304859 -12 0 C-9.8614515 2.1385485 -8.86724686 2.42655063 -6 3 C-9 5 -9 5 -11.8125 4.8125 C-15.18743283 3.952223 -17.95235166 2.66895028 -21 1 C-14.27922885 -5.72077115 -7.82014513 -3.91007257 0 0 Z " fill="#8ABFCB" transform="translate(41,11)"/>
<path d="M0 0 C0.66 0.33 1.32 0.66 2 1 C2.55353075 12.52164009 2.55353075 12.52164009 -1 18 C-1.66 18 -2.32 18 -3 18 C-3.061875 18.61875 -3.12375 19.2375 -3.1875 19.875 C-4 22 -4 22 -6.5625 23.25 C-7.366875 23.4975 -8.17125 23.745 -9 24 C-7.61156647 21.00178847 -5.93331326 18.56098917 -3.9375 15.9375 C-0.43336554 10.82197524 -0.02276544 6.08975457 0 0 Z " fill="#8EC2BC" transform="translate(45,21)"/>
<path d="M0 0 C3.62528568 -0.20140476 5.86501708 0.14223235 9 2 C9.66 1.34 10.32 0.68 11 0 C12 4.75 12 4.75 12 7 C10.68 7 9.36 7 8 7 C5.66365343 7.31151288 3.32961443 7.64159778 1 8 C1 6.35 1 4.7 1 3 C1.99 3.33 2.98 3.66 4 4 C3.67 3.34 3.34 2.68 3 2 C2.01 1.67 1.02 1.34 0 1 C0 0.67 0 0.34 0 0 Z " fill="#8D8A61" transform="translate(22,22)"/>
<path d="M0 0 C2 1.3125 2 1.3125 4 4 C4.83941241 9.17368609 4.98982424 14.21344159 2 18.6875 C1.34 19.450625 0.68 20.21375 0 21 C0 19.33333333 0 17.66666667 0 16 C-0.66 16.99 -1.32 17.98 -2 19 C-2.66 18.67 -3.32 18.34 -4 18 C-3.34 17.01 -2.68 16.02 -2 15 C-4.97 14.505 -4.97 14.505 -8 14 C-6.68 13.67 -5.36 13.34 -4 13 C-4 12.34 -4 11.68 -4 11 C-1.03 11.495 -1.03 11.495 2 12 C2.17835515 7.45194365 1.99785435 4.1205746 0 0 Z " fill="#2D5665" transform="translate(41,17)"/>
<path d="M0 0 C0.66 0 1.32 0 2 0 C2 0.66 2 1.32 2 2 C2.99 1.67 3.98 1.34 5 1 C5.66 1.33 6.32 1.66 7 2 C7.66 1.34 8.32 0.68 9 0 C9 2.31 9 4.62 9 7 C5.36271661 7.93865378 3.63728339 7.93865378 0 7 C0 4.69 0 2.38 0 0 Z " fill="#796535" transform="translate(33,22)"/>
<path d="M0 0 C0.33 1.32 0.66 2.64 1 4 C1.99 4 2.98 4 4 4 C3.67 4.99 3.34 5.98 3 7 C1.35 7 -0.3 7 -2 7 C-2 7.66 -2 8.32 -2 9 C-2.99 9.33 -3.98 9.66 -5 10 C-5 9.01 -5 8.02 -5 7 C-4.34 7 -3.68 7 -3 7 C-2.87625 6.401875 -2.7525 5.80375 -2.625 5.1875 C-2 3 -2 3 0 0 Z " fill="#EFCD65" transform="translate(24,15)"/>
<path d="M0 0 C1.45792884 -0.05399736 2.91642712 -0.09279177 4.375 -0.125 C5.18710937 -0.14820313 5.99921875 -0.17140625 6.8359375 -0.1953125 C9 0 9 0 11 2 C10.34 2 9.68 2 9 2 C9 2.66 9 3.32 9 4 C5.49223216 5.60355101 2.85645121 6.22036864 -1 6 C1 5 3 4 5 3 C3.35 2.67 1.7 2.34 0 2 C0 1.34 0 0.68 0 0 Z " fill="#23485E" transform="translate(29,11)"/>
<path d="M0 0 C2.64 0 5.28 0 8 0 C6.515 2.475 6.515 2.475 5 5 C3.35 4.67 1.7 4.34 0 4 C0 2.68 0 1.36 0 0 Z " fill="#94D98B" transform="translate(32,31)"/>
<path d="M0 0 C0.33 1.32 0.66 2.64 1 4 C1.99 4 2.98 4 4 4 C4.33 3.34 4.66 2.68 5 2 C5.33 3.65 5.66 5.3 6 7 C3.03 6.505 3.03 6.505 0 6 C0 5.34 0 4.68 0 4 C-0.99 3.67 -1.98 3.34 -3 3 C-2.01 2.01 -1.02 1.02 0 0 Z " fill="#E2BF55" transform="translate(35,18)"/>
<path d="M0 0 C0.66 0.99 1.32 1.98 2 3 C-0.98594424 4.49297212 -3.70853624 4.11755228 -7 4 C-7.66 3.67 -8.32 3.34 -9 3 C-9 2.34 -9 1.68 -9 1 C-7.88625 1.020625 -6.7725 1.04125 -5.625 1.0625 C-2.16784079 1.26380718 -2.16784079 1.26380718 0 0 Z " fill="#2B819D" transform="translate(35,15)"/>
<path d="M0 0 C1.32 0 2.64 0 4 0 C4 0.99 4 1.98 4 3 C3.34 3 2.68 3 2 3 C1.67 4.32 1.34 5.64 1 7 C0.01 6.67 -0.98 6.34 -2 6 C-2 2 -2 2 0 0 Z " fill="#52583C" transform="translate(22,23)"/>
<path d="M0 0 C0.33 0 0.66 0 1 0 C1 2.31 1 4.62 1 7 C-0.32 7.33 -1.64 7.66 -3 8 C-3 6.35 -3 4.7 -3 3 C-2.01 3 -1.02 3 0 3 C0 2.01 0 1.02 0 0 Z " fill="#767746" transform="translate(41,22)"/>
<path d="M0 0 C1.32 0.33 2.64 0.66 4 1 C3.67 1.99 3.34 2.98 3 4 C0.9375 4.6875 0.9375 4.6875 -1 5 C-1.66 4.01 -2.32 3.02 -3 2 C-2.01 2 -1.02 2 0 2 C0 1.34 0 0.68 0 0 Z " fill="#A9E29F" transform="translate(25,31)"/>
<path d="M0 0 C0.66 0.33 1.32 0.66 2 1 C2 2.98 2 4.96 2 7 C1.34 7 0.68 7 0 7 C0 6.01 0 5.02 0 4 C-1.65 3.67 -3.3 3.34 -5 3 C-4.67 2.34 -4.34 1.68 -4 1 C-3.01 1.33 -2.02 1.66 -1 2 C-0.67 1.34 -0.34 0.68 0 0 Z " fill="#D6B03A" transform="translate(32,22)"/>
<path d="M0 0 C0.99 0.66 1.98 1.32 3 2 C2.67 2.99 2.34 3.98 2 5 C0.68 5 -0.64 5 -2 5 C-2 3.68 -2 2.36 -2 1 C-1.34 0.67 -0.68 0.34 0 0 Z " fill="#687579" transform="translate(38,17)"/>
<path d="M0 0 C0.33 0.99 0.66 1.98 1 3 C1.99 3.33 2.98 3.66 4 4 C3.67 5.32 3.34 6.64 3 8 C2.01 7.67 1.02 7.34 0 7 C0 4.69 0 2.38 0 0 Z " fill="#717D5E" transform="translate(18,22)"/>
<path d="M0 0 C2.31 0.33 4.62 0.66 7 1 C5.75 2.5 5.75 2.5 4 4 C2.68 4 1.36 4 0 4 C0 2.68 0 1.36 0 0 Z " fill="#30C3E3" transform="translate(28,12)"/>
</svg>
